<svg width="24" height="12" viewBox="0 0 24 12" fill="none" xmlns="http://www.w3.org/2000/svg">
<path d="M0 1C0 0.447715 0.447715 0 1 0H23C23.5523 0 24 0.447715 24 1C24 1.55228 23.5523 2 23 2H1C0.447716 2 0 1.55228 0 1Z" fill="black"/>
<path d="M0 6C0 5.44772 0.447715 5 1 5H23C23.5523 5 24 5.44772 24 6C24 6.55228 23.5523 7 23 7H1C0.447716 7 0 6.55228 0 6Z" fill="black"/>
<path d="M0 11C0 10.4477 0.447715 10 1 10H23C23.5523 10 24 10.4477 24 11C24 11.5523 23.5523 12 23 12H1C0.447716 12 0 11.5523 0 11Z" fill="black"/>
</svg>
